<svg width="108" height="27" viewBox="0 0 108 27" fill="none" xmlns="http://www.w3.org/2000/svg">
<path d="M1.28 20V5.9H8.06C9.66 5.9 10.8933 6.29333 11.76 7.08C12.64 7.85333 13.08 8.93333 13.08 10.32C13.08 11.3733 12.8133 12.26 12.28 12.98C11.76 13.6867 11 14.18 10 14.46C10.7467 14.66 11.3467 15.1733 11.8 16L14 20H9.96L7.52 15.52C7.36 15.24 7.15333 15.04 6.9 14.92C6.66 14.8 6.38 14.74 6.06 14.74H4.96V20H1.28ZM4.96 12.14H7.4C8.85333 12.14 9.58 11.5667 9.58 10.42C9.58 9.28667 8.85333 8.72 7.4 8.72H4.96V12.14ZM13.4011 20V5.9H23.3611V8.74H16.9211V11.42H22.9011V14.26H16.9211V17.16H23.3611V20H13.4011ZM23.7262 20V5.9H26.7863L31.2863 13.98L35.7863 5.9H38.7663V20H35.4463V12.34L32.2263 17.92H30.2263L27.0463 12.42V20H23.7262ZM39.362 20V5.9H43.042V20H39.362ZM43.5925 20V5.9H46.2925L52.7725 13.98V5.9H56.1725V20H53.4925L47.0125 11.92V20H43.5925ZM56.7488 20V5.9H60.4288V20H56.7488ZM66.2192 20.22C65.1126 20.22 64.0526 20.0867 63.0392 19.82C62.0259 19.54 61.1926 19.1733 60.5392 18.72L61.5592 15.86C62.1726 16.2733 62.8926 16.6 63.7192 16.84C64.5459 17.08 65.3792 17.2 66.2192 17.2C67.0992 17.2 67.7126 17.0867 68.0592 16.86C68.4192 16.62 68.5992 16.3267 68.5992 15.98C68.5992 15.6733 68.4726 15.4267 68.2192 15.24C67.9792 15.0533 67.5459 14.8933 66.9192 14.76L64.5792 14.26C62.0459 13.7133 60.7792 12.3867 60.7792 10.28C60.7792 9.36 61.0259 8.55333 61.5192 7.86C62.0259 7.16667 62.7259 6.63333 63.6192 6.26C64.5126 5.87333 65.5526 5.68 66.7392 5.68C67.7126 5.68 68.6326 5.82 69.4992 6.1C70.3792 6.36667 71.0926 6.73333 71.6392 7.2L70.6192 9.88C70.1126 9.50667 69.5259 9.22 68.8592 9.02C68.1926 8.80667 67.4726 8.7 66.6992 8.7C65.9526 8.7 65.3792 8.83333 64.9792 9.1C64.5792 9.35333 64.3792 9.68667 64.3792 10.1C64.3792 10.3933 64.4992 10.6333 64.7392 10.82C64.9792 11.0067 65.4059 11.1667 66.0192 11.3L68.3392 11.8C70.9126 12.3467 72.1992 13.64 72.1992 15.68C72.1992 16.6 71.9526 17.4 71.4592 18.08C70.9659 18.76 70.2726 19.2867 69.3792 19.66C68.4859 20.0333 67.4326 20.22 66.2192 20.22ZM79.1266 20.22C77.5666 20.22 76.2266 19.92 75.1066 19.32C73.9866 18.72 73.1266 17.8733 72.5266 16.78C71.9399 15.6867 71.6466 14.4067 71.6466 12.94C71.6466 11.4733 71.9399 10.2 72.5266 9.12C73.1266 8.02667 73.9866 7.18 75.1066 6.58C76.2266 5.98 77.5666 5.68 79.1266 5.68C80.0599 5.68 80.9599 5.82667 81.8266 6.12C82.6932 6.4 83.3932 6.77333 83.9266 7.24L82.8266 10.14C82.2399 9.71333 81.6532 9.4 81.0666 9.2C80.4799 8.98667 79.8799 8.88 79.2666 8.88C78.0266 8.88 77.0932 9.23333 76.4666 9.94C75.8399 10.6333 75.5266 11.6333 75.5266 12.94C75.5266 14.26 75.8399 15.2733 76.4666 15.98C77.0932 16.6733 78.0266 17.02 79.2666 17.02C79.8799 17.02 80.4799 16.92 81.0666 16.72C81.6532 16.5067 82.2399 16.1867 82.8266 15.76L83.9266 18.66C83.3932 19.1267 82.6932 19.5067 81.8266 19.8C80.9599 20.08 80.0599 20.22 79.1266 20.22ZM83.737 20V5.9H93.697V8.74H87.257V11.42H93.237V14.26H87.257V17.16H93.697V20H83.737ZM94.0222 20V5.9H100.802C102.402 5.9 103.636 6.29333 104.502 7.08C105.382 7.85333 105.822 8.93333 105.822 10.32C105.822 11.3733 105.556 12.26 105.022 12.98C104.502 13.6867 103.742 14.18 102.742 14.46C103.489 14.66 104.089 15.1733 104.542 16L106.742 20H102.702L100.262 15.52C100.102 15.24 99.8955 15.04 99.6422 14.92C99.4022 14.8 99.1222 14.74 98.8022 14.74H97.7022V20H94.0222ZM97.7022 12.14H100.142C101.596 12.14 102.322 11.5667 102.322 10.42C102.322 9.28667 101.596 8.72 100.142 8.72H97.7022V12.14Z" fill="white"/>
</svg>
